<?xml version="1.0" encoding="utf-8"?>
<!-- Generator: Adobe Illustrator 16.0.0, SVG Export Plug-In . SVG Version: 6.00 Build 0)  -->
<!DOCTYPE svg PUBLIC "-//W3C//DTD SVG 1.1//EN" "http://www.w3.org/Graphics/SVG/1.1/DTD/svg11.dtd">
<svg version="1.1" id="divide_logo" xmlns="http://www.w3.org/2000/svg" xmlns:xlink="http://www.w3.org/1999/xlink" x="0px" y="0px"
	 width="354.242px" height="349.615px" viewBox="0 0 354.242 349.615" enable-background="new 0 0 354.242 349.615"
	 xml:space="preserve">
<g>
	<path fill="#fff" d="M97.6,22.785c34.03-18.26,74.4-24.1,112.26-16.64c0.03,94.77-0.01,189.54,0.02,284.31
		c31.57-8.88,58.9-31.38,73.89-60.52c16.36-31.18,18.02-69.56,4.54-102.08c-9.14-22.41-25.21-41.9-45.43-55.19
		c-0.02-18.82-0.02-37.63,0-56.44c31.6,13.3,58.93,36.4,77.39,65.29c18.93,29.33,28.41,64.57,26.96,99.44
		c-1.18,33.41-12.48,66.37-32.04,93.48c-18.94,26.44-45.57,47.33-75.85,59.25c-30.12,11.95-63.71,14.87-95.47,8.53
		c-0.01-94.85,0.01-189.7-0.01-284.55c-29.35,8.41-55.04,28.56-70.38,54.93c-14.69,24.85-19.87,55.04-14.62,83.4
		c5.68,31.95,24.97,61.1,52.01,79c0,19.01,0.01,38.03-0.01,57.04c-29.64-12.59-55.52-33.81-73.75-60.36
		c-16.67-24.12-26.96-52.6-29.53-81.82c-2.88-31.44,3.01-63.66,17.1-91.93C40.379,66.105,66.25,39.415,97.6,22.785z"/>
</g>
</svg>
