<?xml version="1.0" standalone="no"?>
<!DOCTYPE svg PUBLIC "-//W3C//DTD SVG 20010904//EN"
 "http://www.w3.org/TR/2001/REC-SVG-20010904/DTD/svg10.dtd">
<svg version="1.0" xmlns="http://www.w3.org/2000/svg"
 width="289.000000pt" height="289.000000pt" viewBox="0 0 289.000000 289.000000"
 preserveAspectRatio="xMidYMid meet">
<metadata>
Created by potrace 1.11, written by Peter Selinger 2001-2013
</metadata>
<g transform="translate(0.000000,289.000000) scale(0.100000,-0.100000)"
fill="#000000" stroke="none">
<path d="M1320 2665 c0 -151 -3 -196 -12 -194 -7 1 -95 1 -195 0 l-183 -1 0
-115 0 -115 53 -1 c28 0 116 0 195 0 l143 0 -3 -167 -3 -167 -338 -2 c-186 0
-340 -3 -343 -5 -2 -3 -5 -55 -6 -116 -3 -94 -1 -112 12 -113 8 -1 164 -1 346
0 l331 1 0 -810 c0 -445 2 -813 6 -816 7 -7 229 -6 236 1 2 3 4 369 4 813 l0
808 340 2 c187 1 343 4 345 7 6 6 4 217 -3 223 -3 3 -158 5 -344 5 l-339 -1 2
166 1 167 193 3 192 2 1 43 c2 98 0 179 -4 183 -2 3 -83 5 -178 6 -96 0 -181
2 -190 4 -15 4 -17 26 -17 182 0 97 -1 183 -1 190 -1 9 -32 12 -121 12 l-120
0 0 -195z"/>
</g>
</svg>
