<?xml version="1.0" standalone="no"?>
<!DOCTYPE svg PUBLIC "-//W3C//DTD SVG 20010904//EN"
 "http://www.w3.org/TR/2001/REC-SVG-20010904/DTD/svg10.dtd">
<svg version="1.0" xmlns="http://www.w3.org/2000/svg"
 width="965.000000pt" height="965.000000pt" viewBox="0 0 965.000000 965.000000"
 preserveAspectRatio="xMidYMid meet">
<metadata>
Created by potrace 1.11, written by Peter Selinger 2001-2013
</metadata>
<g transform="translate(0.000000,965.000000) scale(0.100000,-0.100000)"
fill="#000000" stroke="none">
<path d="M4185 8437 l0 -1212 -1205 -2 c-663 0 -1208 -1 -1212 -2 -5 -1 -8
-289 -8 -641 l0 -640 1213 0 1213 0 0 -2967 0 -2968 642 -3 642 -2 0 2970 0
2970 1210 0 1210 0 0 639 c0 502 -3 640 -12 643 -7 2 -552 3 -1210 3 l-1198
-1 0 1213 0 1213 -642 0 -643 0 0 -1213z"/>
</g>
</svg>
