<?xml version="1.0" standalone="no"?>
<!DOCTYPE svg PUBLIC "-//W3C//DTD SVG 20010904//EN"
 "http://www.w3.org/TR/2001/REC-SVG-20010904/DTD/svg10.dtd">
<svg version="1.0" xmlns="http://www.w3.org/2000/svg"
 width="163.000000pt" height="163.000000pt" viewBox="0 0 163.000000 163.000000"
 preserveAspectRatio="xMidYMid meet">
<metadata>
Created by potrace 1.11, written by Peter Selinger 2001-2013
</metadata>
<g transform="translate(0.000000,163.000000) scale(0.100000,-0.100000)"
fill="#000000" stroke="none">
<path d="M653 1608 c-23 -29 -21 -48 6 -82 21 -27 33 -59 45 -124 18 -92 34
-430 23 -475 -6 -21 -16 -27 -57 -36 -64 -14 -162 -14 -310 -1 -166 15 -216
27 -254 61 -40 35 -69 37 -90 7 -13 -18 -16 -51 -16 -151 0 -71 5 -137 10
-148 15 -26 64 -25 83 2 23 32 86 48 241 64 170 18 268 19 335 4 47 -10 51
-13 57 -46 11 -56 -3 -422 -18 -489 -8 -37 -25 -74 -41 -93 -32 -38 -35 -76
-8 -91 11 -5 79 -10 151 -10 126 0 132 1 155 25 31 30 31 36 0 73 -13 16 -31
56 -40 88 -25 96 -45 451 -29 511 9 32 54 43 183 43 123 0 342 -22 396 -40 17
-6 42 -22 53 -35 26 -30 46 -31 72 -5 18 18 20 33 20 159 0 114 -3 143 -16
155 -23 23 -44 20 -79 -13 -40 -39 -79 -48 -289 -67 -184 -17 -302 -12 -330
16 -16 16 -20 303 -6 420 14 126 24 160 60 205 35 44 36 48 14 69 -13 13 -42
16 -163 16 -107 0 -151 -3 -158 -12z m277 -35 c0 -3 -7 -14 -15 -23 -8 -9 -25
-52 -36 -96 -18 -66 -22 -116 -26 -305 -6 -271 -4 -281 77 -298 142 -31 549 9
613 59 l24 19 7 -45 c3 -26 3 -77 0 -115 -6 -63 -9 -68 -23 -56 -47 41 -218
67 -437 67 -102 0 -184 -5 -204 -11 -52 -19 -60 -52 -60 -256 0 -247 25 -399
73 -443 21 -20 20 -20 -108 -20 -123 0 -127 1 -112 18 40 44 77 289 76 502 0
130 -12 169 -59 193 -31 16 -56 18 -230 14 -221 -6 -350 -25 -405 -63 l-35
-23 0 122 c1 102 3 119 14 105 31 -42 169 -69 382 -75 210 -7 258 -1 296 37
l28 28 0 204 c0 113 -5 231 -11 264 -13 79 -38 155 -56 176 -14 15 -11 17 29
21 79 7 198 7 198 0z"/>
<path d="M1151 1372 c-13 -46 -46 -81 -62 -65 -6 6 -13 29 -16 52 -5 39 -7 41
-40 41 -34 0 -34 -1 -28 -32 4 -18 18 -54 31 -79 l23 -46 -23 -34 c-47 -71
-59 -150 -31 -216 34 -81 64 -81 33 -1 -23 61 -21 132 6 173 13 20 20 24 30
15 13 -10 19 -29 46 -138 9 -36 15 -43 33 -40 20 3 22 8 20 54 -1 28 -13 81
-27 119 l-25 69 29 36 c30 38 66 107 59 114 -2 2 -14 7 -26 10 -19 6 -23 2
-32 -32z"/>
<path d="M1274 1366 c-75 -98 -90 -165 -55 -242 22 -49 89 -126 102 -118 13 8
84 106 92 127 13 35 -28 17 -51 -23 -12 -22 -27 -40 -32 -40 -18 0 -64 72 -77
123 -12 48 -12 54 9 96 13 25 28 46 33 48 6 2 19 -11 29 -28 17 -29 19 -30 37
-13 10 9 19 21 19 26 0 13 -49 75 -63 81 -7 2 -26 -14 -43 -37z"/>
<path d="M210 1200 l0 -200 30 0 30 0 0 200 0 200 -30 0 -30 0 0 -200z"/>
<path d="M416 1368 c-40 -53 -76 -133 -76 -169 0 -47 40 -127 84 -168 l35 -34
23 28 c13 16 35 47 50 69 25 37 26 41 10 47 -12 5 -22 -2 -34 -26 -28 -53 -42
-59 -65 -27 -59 79 -70 158 -31 220 l22 35 26 -31 c26 -32 27 -32 45 -12 17
19 17 21 -10 60 -15 22 -34 40 -41 40 -7 0 -24 -15 -38 -32z"/>
<path d="M210 420 l0 -201 28 3 c27 3 27 3 24 73 -1 39 1 89 5 113 l8 43 43
-28 42 -27 0 -89 0 -88 33 3 c17 2 31 6 30 11 -2 4 -3 93 -3 197 l0 190 -30 0
-29 0 -3 -90 -3 -89 -48 31 -48 31 2 56 c3 54 2 56 -24 59 l-27 3 0 -201z"/>
<path d="M495 420 l0 -200 34 0 c26 0 32 3 27 16 -3 9 -6 99 -6 200 l0 184
-27 0 -28 0 0 -200z"/>
<path d="M1002 423 l3 -198 25 0 c25 0 25 2 28 87 l3 86 29 -15 c29 -14 30
-17 30 -84 l0 -69 29 0 29 0 0 95 1 96 -34 -7 c-40 -7 -75 10 -75 36 0 24 15
33 65 40 l40 5 3 63 3 62 -31 0 c-29 0 -30 -2 -30 -44 0 -35 -5 -47 -25 -60
-13 -9 -27 -16 -30 -16 -3 0 -5 27 -5 60 l0 60 -30 0 -30 0 2 -197z"/>
<path d="M1290 611 c0 -5 15 -12 33 -15 l32 -7 -47 -42 c-68 -62 -84 -103 -52
-138 13 -14 13 -20 2 -38 -10 -16 -10 -23 0 -33 16 -16 15 -60 -3 -84 -20 -27
-19 -34 8 -34 34 0 42 11 44 65 2 64 7 98 17 113 18 29 26 6 26 -77 0 -94 6
-107 43 -97 22 5 22 7 19 201 l-3 195 -59 0 c-33 0 -60 -4 -60 -9z m63 -138
c-11 -32 -47 -43 -57 -18 -7 19 17 71 36 78 20 7 32 -27 21 -60z"/>
</g>
</svg>
